<svg
      id="logo"
      className="bg-bodyColor"
      xmlns="http://www.w3.org/2000/svg"
      viewBox="0 0 100 100"
    >
      <title>Logo</title>
      <g>
        <g id="T" transform="translate(35.000000, 35.000000)">
          <path
            fill="currentColor"
            d="M 16.640625 26.128906 L 13.011719 26.128906 C 12.726562 26.128906 12.496094 25.890625 12.496094 25.601562 L 12.496094 6.597656 L 6.277344 6.597656 C 5.988281 6.597656 5.757812 6.363281 5.757812 6.070312 L 5.757812 3.429688 C 5.757812 3.140625 5.988281 2.902344 6.277344 2.902344 L 23.375 2.902344 C 23.660156 2.902344 23.894531 3.140625 23.894531 3.429688 L 23.894531 6.070312 C 23.894531 6.363281 23.660156 6.597656 23.375 6.597656 L 17.15625 6.597656 L 17.15625 25.601562 C 17.15625 25.890625 16.925781 26.128906 16.640625 26.128906 Z M 16.640625 26.128906 "
          />
        </g>
        <path
          stroke="currentColor"
          strokeWidth="5"
          strokeLinecap="round"
          strokeLinejoin="round"
          d="M 50, 5
                  L 11, 27
                  L 11, 72
                  L 50, 95
                  L 89, 73
                  L 89, 28 z"
        />
      </g>
    </svg>